# xmcd
#
# Track frame offsets:
#	150
#	15484
#	35580
#	51072
#	68492
#	82399
#	94385
#	114486
#	135600
#	156645
#	169898
#	189010
#	204032
#	226033
#	243393
#
# Disc length: 3492 seconds
#
# Revision: 1
# Processed by: cddbd v1.5.2PL0 Copyright (c) Steve Scherf et al.
# Submitted via: audiograbber 1.83.01
#
DISCID=bf0da20f
DTITLE=Guy Clark - Live From Austin TX
DYEAR=1889
DGENRE=Country
TTITLE0=Texas1947
TTITLE1=L.A. Freeway (Pack up all your dishes)
TTITLE2=The Carpenter
TTITLE3=Old Friends
TTITLE4=Come From The Heart
TTITLE5=I'M All Through Throwing Good Love After Bad
TTITLE6=Randall Knife
TTITLE7=Immigrant Eyes
TTITLE8=Desperados Waiting For A Train
TTITLE9=The Last Gunfighter Ballad
TTITLE10=New Cut Road
TTITLE11=Better Days
TTITLE12=Homegrown Tomatoes
TTITLE13=To Live Is To Fly
TTITLE14=Texas Cookin'
EXTD=
EXTT0=
EXTT1=
EXTT2=
EXTT3=
EXTT4=
EXTT5=
EXTT6=
EXTT7=
EXTT8=
EXTT9=
EXTT10=
EXTT11=
EXTT12=
EXTT13=
EXTT14=
PLAYORDER=
